<?xml version="1.0" encoding="utf-8"?>
<!-- Generator: Adobe Illustrator 27.5.0, SVG Export Plug-In . SVG Version: 6.00 Build 0)  -->
<svg version="1.1" id="Layer_1" xmlns="http://www.w3.org/2000/svg" xmlns:xlink="http://www.w3.org/1999/xlink" x="0px" y="0px"
	 viewBox="0 0 3130.4 512" style="enable-background:new 0 0 3130.4 512;" xml:space="preserve">
<style type="text/css">
	.st0{fill:#E95E33;}
</style>
<path class="st0" d="M301.9,17c-5.3-11-16.5-18-28.8-18s-23.4,7-28.8,18L180,149.3L36.4,170.5c-12,1.8-22,10.2-25.7,21.7
	s-0.7,24.2,7.9,32.7L122.8,328L98.2,473.7c-2,12,3,24.2,12.9,31.3s23,8,33.8,2.3l128.3-68.5l128.3,68.5c10.8,5.7,23.9,4.9,33.8-2.3
	s14.9-19.3,12.9-31.3L423.5,328l104.2-103.1c8.6-8.5,11.7-21.2,7.9-32.7s-13.7-19.9-25.7-21.7l-143.7-21.2L301.9,17z"/>
<path class="st0" d="M948.3,17C943,6,931.8-1,919.5-1s-23.4,7-28.8,18l-64.3,132.3l-143.6,21.2c-12,1.8-22,10.2-25.7,21.7
	s-0.7,24.2,7.9,32.7L769.2,328l-24.6,145.7c-2,12,3,24.2,12.9,31.3s23,8,33.8,2.3l128.3-68.5l128.3,68.5c10.8,5.7,23.9,4.9,33.8-2.3
	s14.9-19.3,12.9-31.3L1069.9,328l104.2-103.1c8.6-8.5,11.7-21.2,7.9-32.7c-3.8-11.5-13.7-19.9-25.7-21.7l-143.7-21.2L948.3,17z"/>
<path class="st0" d="M1594.8,17c-5.3-11-16.5-18-28.8-18s-23.4,7-28.8,18l-64.3,132.3l-143.6,21.2c-12,1.8-22,10.2-25.7,21.7
	s-0.7,24.2,7.9,32.7L1415.7,328l-24.6,145.7c-2,12,3,24.2,12.9,31.3s23,8,33.8,2.3l128.3-68.5l128.3,68.5
	c10.8,5.7,23.9,4.9,33.8-2.3s14.9-19.3,12.9-31.3L1716.4,328l104.2-103.1c8.6-8.5,11.7-21.2,7.9-32.7c-3.8-11.5-13.7-19.9-25.7-21.7
	l-143.7-21.2L1594.8,17z"/>
<path class="st0" d="M2241.2,17c-5.3-11-16.5-18-28.8-18s-23.4,7-28.8,18l-64.3,132.3l-143.6,21.2c-12,1.8-22,10.2-25.7,21.7
	s-0.7,24.2,7.9,32.7L2062.1,328l-24.6,145.7c-2,12,3,24.2,12.9,31.3c9.9,7.1,23,8,33.8,2.3l128.3-68.5l128.3,68.5
	c10.8,5.7,23.9,4.9,33.8-2.3c9.9-7.2,14.9-19.3,12.9-31.3L2362.8,328L2467,224.9c8.6-8.5,11.7-21.2,7.9-32.7s-13.7-19.9-25.7-21.7
	l-143.7-21.2L2241.2,17z"/>
<path class="st0" d="M2887.6,17c-5.3-11-16.5-18-28.8-18s-23.4,7-28.8,18l-64.3,132.3l-143.6,21.2c-12,1.8-22,10.2-25.7,21.7
	s-0.7,24.2,7.9,32.7L2708.5,328l-24.6,145.7c-2,12,3,24.2,12.9,31.3s23,8,33.8,2.3l128.3-68.5l128.3,68.5
	c10.8,5.7,23.9,4.9,33.8-2.3s14.9-19.3,12.9-31.3L3009.2,328l104.2-103.1c8.6-8.5,11.7-21.2,7.9-32.7s-13.7-19.9-25.7-21.7
	l-143.7-21.2L2887.6,17z"/>
</svg>
